<?xml version="1.0" standalone="no"?>
<!DOCTYPE svg PUBLIC "-//W3C//DTD SVG 20010904//EN"
 "http://www.w3.org/TR/2001/REC-SVG-20010904/DTD/svg10.dtd">
<svg version="1.0" xmlns="http://www.w3.org/2000/svg"
 width="1830.000000pt" height="1830.000000pt" viewBox="0 0 1830.000000 1830.000000"
 preserveAspectRatio="xMidYMid meet">
<metadata>
Created by potrace 1.16, written by Peter Selinger 2001-2019
</metadata>
<g transform="translate(0.000000,1830.000000) scale(0.100000,-0.100000)"
fill="#000000" stroke="none">
<path d="M11775 17389 c-22 -4 -79 -8 -127 -8 -89 -1 -165 -22 -257 -70 -26
-14 -65 -21 -141 -25 -58 -3 -132 -13 -165 -21 -33 -8 -80 -15 -104 -15 -37 0
-49 -5 -77 -36 -19 -19 -34 -42 -34 -50 0 -8 -21 -25 -47 -38 -186 -93 -171
-87 -207 -72 -18 8 -37 19 -40 25 -11 17 -35 13 -66 -9 -81 -58 -248 -63 -316
-9 -42 33 -51 35 -101 14 -30 -13 -46 -14 -87 -5 -40 9 -63 8 -105 -3 -50 -13
-56 -17 -68 -53 -8 -21 -20 -45 -27 -52 -7 -8 -67 -22 -132 -32 -242 -38 -321
-52 -394 -70 -41 -10 -102 -22 -135 -25 -33 -4 -91 -13 -128 -21 -71 -15 -97
-11 -240 36 -23 7 -35 4 -71 -21 -24 -16 -50 -29 -58 -29 -8 0 -34 14 -57 31
-41 29 -45 30 -90 19 -42 -10 -57 -8 -137 15 -106 32 -128 32 -264 6 -58 -12
-114 -21 -125 -21 -10 0 -58 -25 -106 -55 -75 -47 -96 -56 -150 -61 -35 -3
-88 -14 -117 -25 -42 -15 -61 -17 -100 -10 -96 19 -264 22 -316 6 -27 -8 -77
-15 -110 -15 -43 0 -73 -6 -100 -21 -21 -11 -66 -29 -100 -39 -33 -11 -76 -33
-93 -49 -32 -29 -36 -30 -130 -30 -88 0 -104 -3 -155 -30 -31 -16 -81 -32
-110 -36 -29 -4 -85 -22 -123 -41 -135 -66 -185 -74 -369 -64 -201 12 -236 16
-363 46 -57 13 -121 24 -142 24 -36 0 -43 -5 -69 -42 -16 -24 -40 -67 -52 -96
-14 -33 -37 -64 -64 -85 -22 -17 -92 -85 -154 -149 -117 -121 -178 -167 -247
-188 -46 -14 -84 -47 -126 -107 -21 -30 -37 -43 -53 -43 -37 0 -108 -28 -146
-59 -52 -41 -125 -76 -220 -106 -77 -25 -252 -104 -448 -203 -40 -20 -94 -54
-120 -74 -26 -20 -82 -59 -126 -85 -43 -26 -115 -80 -161 -119 -71 -61 -93
-74 -168 -98 -71 -22 -92 -34 -113 -61 -14 -19 -50 -50 -79 -70 -29 -19 -65
-49 -80 -67 -25 -29 -27 -38 -22 -93 3 -50 11 -71 40 -111 35 -49 35 -49 16
-72 -10 -13 -28 -50 -40 -83 -12 -33 -26 -62 -30 -65 -14 -9 -10 -42 10 -82
21 -43 35 -123 26 -152 -8 -25 -30 -25 -79 0 -36 18 -40 18 -51 3 -18 -25 -48
-265 -43 -338 5 -57 3 -66 -17 -85 -27 -26 -58 -20 -92 16 -25 27 -43 31 -43
9 0 -8 -9 -35 -21 -60 -11 -24 -18 -49 -14 -55 3 -5 7 -28 7 -51 0 -30 4 -39
14 -35 8 3 14 2 14 -3 0 -5 8 -11 17 -13 10 -3 24 -17 32 -32 13 -23 13 -34 2
-69 -22 -71 -24 -124 -7 -199 53 -240 65 -354 45 -437 -9 -40 -7 -50 18 -99
19 -38 40 -62 64 -76 34 -19 37 -19 53 -3 9 9 35 21 56 27 22 6 40 15 40 20 0
20 102 118 156 148 39 23 69 49 89 80 28 41 47 54 205 134 216 109 330 143
454 134 43 -3 81 -8 84 -11 3 -3 5 -25 3 -50 -4 -76 14 -81 339 -97 300 -14
443 -14 515 2 72 15 225 16 280 1 22 -5 76 -15 120 -21 44 -5 127 -17 185 -26
58 -8 164 -19 235 -24 118 -8 139 -12 226 -48 89 -37 101 -40 155 -32 33 4 75
14 94 23 21 9 84 18 155 22 104 6 132 4 210 -15 59 -14 105 -19 135 -16 55 7
110 -8 251 -69 57 -25 125 -48 152 -51 43 -6 53 -12 85 -54 21 -26 45 -62 54
-79 9 -17 34 -39 55 -48 21 -10 48 -30 61 -45 13 -16 38 -32 55 -37 27 -7 36
-4 59 16 14 14 36 52 49 85 12 33 28 62 35 65 21 8 94 -36 106 -65 6 -15 17
-72 24 -126 18 -138 31 -150 148 -147 62 2 106 -4 163 -20 94 -26 128 -44 211
-109 37 -29 84 -56 115 -65 91 -27 148 -65 174 -115 12 -25 23 -55 23 -67 0
-46 -23 -125 -44 -151 -15 -17 -25 -47 -29 -81 -6 -49 -12 -59 -65 -113 -32
-33 -83 -99 -113 -149 -30 -49 -86 -134 -126 -188 -57 -79 -73 -108 -78 -147
-10 -73 -14 -82 -44 -103 -26 -19 -152 -61 -246 -82 -52 -12 -115 -40 -115
-51 0 -21 -19 -3 -44 41 -27 51 -42 60 -126 76 -23 5 -54 26 -90 59 -66 63
-73 67 -174 100 -71 23 -81 24 -106 11 -25 -13 -45 -46 -52 -85 -1 -8 8 -33
19 -56 27 -51 45 -151 37 -202 -18 -111 -78 -137 -274 -117 -84 8 -207 -7
-255 -32 -35 -18 -160 -30 -168 -16 -11 17 28 103 54 120 73 49 129 126 129
178 0 37 -25 92 -63 135 -17 21 -40 49 -49 63 -9 13 -43 39 -75 57 -31 18 -80
49 -108 70 -27 20 -76 51 -107 69 -52 29 -61 31 -96 22 -48 -14 -59 -35 -72
-149 -13 -116 -35 -198 -68 -250 -15 -24 -38 -63 -52 -87 -23 -39 -84 -114
-142 -173 -68 -70 -188 -139 -255 -148 -21 -3 -66 -12 -100 -21 -98 -25 -223
-14 -364 30 -63 20 -131 48 -150 62 -19 13 -55 39 -82 56 -26 17 -53 38 -60
48 -6 9 -27 27 -45 40 -18 12 -41 40 -52 62 -20 39 -35 45 -75 30 -16 -6 -19
-16 -16 -57 1 -30 -3 -56 -12 -68 -14 -20 -16 -20 -98 3 -111 31 -211 50 -282
52 -48 2 -62 -2 -80 -19 l-21 -22 45 -47 c50 -53 107 -130 133 -180 21 -41 50
-55 156 -77 193 -40 326 -84 366 -121 26 -24 64 -35 123 -35 20 0 58 -7 85
-15 42 -13 68 -13 165 -4 67 7 170 9 246 5 71 -4 182 -6 245 -6 98 0 157 -9
140 -23 -3 -2 -43 -16 -90 -31 -47 -15 -95 -38 -107 -51 -16 -17 -41 -25 -105
-34 -45 -7 -148 -23 -228 -36 -254 -42 -395 -54 -646 -56 l-241 -1 -122 53
c-91 39 -126 60 -136 78 -18 35 -92 105 -131 124 -17 9 -55 19 -85 23 -79 10
-105 26 -114 71 -14 78 -36 90 -94 50 -31 -21 -40 -23 -88 -15 -34 5 -73 21
-106 43 -29 19 -73 39 -100 45 -44 9 -49 8 -88 -19 -22 -17 -45 -31 -52 -34
-14 -4 7 -59 34 -83 26 -23 24 -30 -12 -43 -23 -8 -53 -6 -131 10 -85 17 -109
18 -150 9 -45 -11 -52 -10 -113 18 -36 17 -108 59 -160 93 l-96 62 -185 5
-184 5 -56 -37 c-63 -42 -81 -75 -120 -221 -14 -49 -33 -103 -44 -120 -42 -67
-52 -99 -46 -155 4 -46 -1 -72 -31 -160 -33 -97 -36 -116 -41 -250 -5 -155
-12 -183 -68 -249 -20 -24 -26 -42 -26 -74 1 -23 3 -132 5 -242 1 -110 7 -209
12 -219 13 -29 40 -53 87 -77 24 -12 63 -35 87 -52 l43 -30 -6 -57 c-4 -32
-16 -83 -27 -114 -28 -82 -33 -134 -16 -183 14 -37 14 -49 -3 -125 -11 -45
-22 -93 -26 -106 -5 -19 4 -33 53 -80 32 -31 76 -71 97 -89 l38 -32 -7 -68
c-10 -90 -18 -109 -55 -128 -29 -15 -30 -18 -17 -33 9 -9 19 -29 22 -45 4 -15
11 -30 17 -33 20 -13 30 -63 37 -180 5 -95 10 -125 24 -138 9 -10 17 -23 17
-31 0 -7 6 -15 13 -18 18 -6 10 -128 -12 -187 l-19 -50 31 -15 c27 -14 33 -14
54 0 13 9 28 26 32 38 5 13 16 29 26 37 14 12 18 12 26 -1 5 -8 9 -18 9 -24 0
-5 19 -30 43 -55 40 -43 42 -47 42 -110 -1 -55 -5 -72 -31 -112 -17 -25 -36
-70 -43 -100 -12 -49 -11 -57 9 -103 34 -77 49 -151 39 -193 -5 -20 -9 -68 -9
-105 0 -59 3 -71 25 -92 13 -14 30 -25 38 -25 8 0 22 -8 31 -19 16 -18 15 -21
-14 -67 -27 -43 -29 -54 -24 -99 4 -27 22 -79 41 -115 27 -51 34 -73 30 -102
-5 -41 19 -131 53 -198 31 -60 36 -127 15 -189 -16 -49 -16 -54 1 -109 10 -31
26 -73 35 -92 24 -47 39 -145 39 -259 0 -77 5 -106 25 -157 19 -46 26 -87 29
-156 4 -99 23 -184 56 -248 16 -32 19 -47 11 -82 -14 -69 -4 -147 29 -238 17
-47 35 -113 40 -146 7 -54 16 -73 74 -153 79 -110 87 -125 116 -221 23 -79 51
-139 82 -180 70 -93 98 -138 98 -158 0 -14 11 -50 25 -81 14 -31 38 -105 54
-165 20 -73 41 -125 64 -160 19 -28 44 -68 57 -89 12 -21 27 -43 34 -50 7 -6
30 -37 53 -67 52 -71 103 -116 142 -125 17 -4 31 -11 31 -16 0 -5 6 -9 14 -9
18 0 92 -108 103 -151 9 -35 16 -40 77 -59 43 -14 114 -63 160 -110 29 -30 79
-50 126 -50 60 0 161 -29 205 -60 26 -18 63 -37 83 -42 45 -12 67 -34 88 -87
9 -23 20 -41 24 -41 5 0 12 -9 15 -20 3 -11 11 -20 17 -20 6 0 16 -6 22 -14
10 -12 102 -45 166 -60 14 -3 36 -16 50 -28 14 -13 58 -43 99 -67 40 -25 79
-50 85 -57 7 -6 35 -23 64 -38 28 -14 53 -30 56 -35 3 -5 29 -17 57 -27 56
-20 74 -47 64 -94 -4 -20 0 -31 20 -48 14 -12 29 -22 34 -22 5 0 31 -22 57
-50 l48 -50 220 0 c185 0 233 -4 292 -19 76 -21 182 -29 202 -17 7 4 21 26 31
49 11 24 29 51 40 61 20 18 22 18 73 -3 29 -12 89 -27 133 -32 172 -21 204
-28 231 -47 16 -12 54 -29 84 -38 74 -24 113 -46 125 -72 5 -12 15 -22 22 -22
21 0 15 -27 -7 -33 -11 -3 -25 -19 -31 -35 -6 -17 -20 -32 -32 -36 l-22 -6 23
-16 c13 -8 34 -33 48 -55 22 -36 23 -42 11 -67 -8 -15 -17 -38 -21 -52 -10
-38 -119 -118 -170 -124 -22 -3 -93 -12 -157 -21 -64 -8 -150 -15 -191 -15
-55 0 -79 -4 -88 -15 -10 -12 -16 -13 -26 -4 -8 6 -14 17 -14 23 0 16 -39 48
-50 41 -6 -4 -10 -2 -10 2 0 12 -149 -3 -224 -22 -33 -9 -69 -23 -80 -33 -11
-9 -28 -24 -37 -32 -9 -9 -26 -58 -39 -115 -12 -55 -24 -107 -26 -116 -3 -9
-17 -19 -32 -23 -15 -3 -36 -14 -48 -24 -25 -21 -64 -120 -64 -162 l0 -30
3065 0 3065 0 0 25 c0 27 52 105 112 165 20 21 46 57 59 81 12 24 36 56 53 72
23 22 32 41 36 75 5 45 7 48 70 84 36 21 68 39 73 41 4 1 12 27 16 57 11 83
56 151 119 184 55 28 95 71 88 94 -8 24 10 102 24 102 4 0 17 17 27 37 10 21
22 37 28 36 5 -1 15 -42 22 -90 9 -74 15 -91 38 -110 33 -29 42 -29 51 0 9 31
34 57 69 71 23 10 34 25 48 66 12 33 36 70 67 102 31 32 50 61 54 84 5 21 18
42 36 56 17 12 30 30 30 40 0 11 22 43 49 71 27 29 61 75 75 102 13 28 36 60
49 72 16 13 28 37 32 63 5 32 18 54 49 84 50 48 61 67 70 119 5 28 15 43 36
55 16 9 35 30 43 47 8 16 31 52 52 79 20 27 46 74 56 105 11 31 33 73 50 94
17 20 41 63 55 94 14 31 38 74 53 97 16 23 41 66 56 96 15 30 38 68 51 83 13
16 24 34 24 40 0 22 47 112 72 139 14 14 35 58 47 97 16 53 29 76 51 93 31 22
40 43 60 141 6 31 22 70 35 86 14 15 35 62 48 104 14 42 38 94 55 115 22 27
40 72 63 153 17 62 42 134 55 159 12 25 32 81 44 124 11 43 32 97 45 120 13
23 28 68 35 101 6 33 29 101 50 150 22 52 47 136 60 200 11 61 32 135 46 165
14 30 36 111 49 178 14 72 33 137 44 155 39 60 50 95 62 188 11 96 28 150 55
180 9 10 26 73 39 141 13 74 35 150 53 190 17 37 41 107 53 155 12 49 32 112
45 141 13 29 36 99 50 154 15 55 37 112 49 127 11 14 29 52 38 83 14 44 27 65
57 89 39 31 42 38 86 192 3 9 16 30 29 45 37 44 57 132 64 281 6 126 7 136 26
139 11 1 30 20 43 42 12 22 37 47 54 56 55 29 122 87 173 152 42 53 59 66 109
84 32 12 84 40 115 63 80 60 248 243 281 305 7 14 25 41 40 60 16 21 54 118
98 245 109 323 132 408 142 531 5 60 18 134 28 164 27 77 77 155 115 179 20
12 43 42 61 78 16 32 42 76 58 98 60 85 121 182 143 229 13 26 37 62 53 80 16
17 35 48 42 69 6 20 29 63 50 95 36 53 59 120 75 217 3 22 17 86 31 142 25
104 36 237 21 261 -5 7 -30 12 -62 12 -84 0 -109 -28 -145 -160 -33 -126 -102
-295 -134 -330 -64 -70 -126 -185 -126 -234 0 -12 -10 -41 -21 -66 l-21 -45
-14 27 c-17 32 -20 306 -4 378 6 25 13 142 16 261 l6 216 -36 37 c-20 20 -43
36 -51 36 -17 0 -19 11 -6 26 5 5 14 29 19 54 29 126 47 152 197 278 50 42
119 103 155 137 36 34 90 75 120 90 30 15 65 35 80 45 36 26 124 44 177 36 35
-4 57 -16 90 -46 24 -23 48 -38 53 -35 16 10 12 128 -5 151 -15 22 -40 85 -56
144 -17 58 -122 161 -204 199 -38 19 -86 37 -105 42 -91 22 -324 -52 -416
-131 -18 -15 -54 -36 -80 -46 -27 -10 -65 -31 -84 -47 -19 -17 -59 -41 -90
-54 -147 -64 -182 -93 -200 -166 -6 -23 -20 -69 -32 -102 -16 -42 -24 -96 -29
-180 -4 -66 -17 -174 -29 -240 -15 -78 -25 -186 -30 -310 -9 -203 -15 -244
-54 -321 -14 -27 -30 -81 -36 -119 -15 -93 -40 -187 -52 -203 -6 -6 -21 -12
-34 -12 -13 0 -33 -9 -43 -19 -11 -11 -22 -17 -25 -13 -9 8 -7 65 3 98 32 105
42 158 57 314 13 138 14 188 5 241 -16 98 -14 140 14 311 29 174 31 250 10
328 -8 30 -15 84 -15 120 0 36 -4 81 -9 101 -5 23 -3 74 7 142 14 104 14 108
-8 174 -12 38 -29 79 -37 91 -10 17 -15 56 -16 135 l-2 112 -25 -3 c-47 -4
-51 -9 -36 -37 8 -15 22 -60 31 -100 l18 -74 -37 -42 c-20 -24 -41 -60 -46
-80 -6 -20 -17 -42 -25 -49 -10 -8 -15 -31 -15 -68 0 -66 -28 -160 -51 -173
-32 -16 -40 14 -45 158 -6 146 -20 207 -55 239 -29 26 -27 29 -133 -196 -31
-67 -76 -123 -130 -161 -32 -23 -53 -53 -96 -137 -63 -122 -84 -139 -193 -152
-51 -6 -80 -3 -164 19 -97 24 -104 25 -159 11 -51 -13 -63 -21 -95 -63 -20
-27 -57 -85 -82 -130 -68 -123 -61 -117 -160 -127 -48 -5 -92 -12 -98 -15 -19
-13 -59 4 -59 25 0 11 -9 29 -21 41 -16 16 -27 19 -52 14 -51 -11 -52 -20 -7
-69 l42 -45 -28 -46 c-16 -26 -41 -54 -56 -63 -25 -15 -30 -15 -77 8 -28 12
-64 40 -81 61 -38 48 -63 55 -121 35 -75 -27 -197 -16 -233 19 -12 13 -17 9
-36 -29 -26 -54 -97 -111 -164 -132 -81 -25 -200 -29 -275 -9 -36 9 -110 22
-166 30 -79 10 -114 20 -156 43 -30 17 -85 38 -122 48 -49 12 -81 28 -115 56
-44 36 -121 68 -166 68 -13 0 -17 3 -10 10 15 15 243 24 292 11 23 -7 42 -16
42 -21 0 -27 61 -38 251 -45 205 -8 233 -4 268 39 16 19 73 21 188 4 61 -9 88
-9 105 -1 13 7 39 15 58 19 19 3 69 19 110 34 50 19 105 31 164 35 108 8 176
37 232 97 20 22 61 51 90 64 34 15 65 39 91 70 21 26 48 58 61 71 12 13 22 33
22 44 0 11 7 33 15 49 l15 29 -35 7 c-19 3 -77 1 -129 -5 -52 -6 -108 -11
-124 -11 l-29 0 -6 78 c-2 44 -12 93 -21 109 -32 64 -125 95 -215 73 l-50 -12
-21 -64 c-17 -50 -31 -72 -62 -97 -22 -17 -51 -51 -64 -73 -44 -75 -121 -137
-244 -196 -145 -70 -210 -83 -373 -74 -158 9 -240 21 -274 39 -16 8 -62 34
-104 58 -166 95 -275 271 -341 549 -13 53 -14 55 -57 63 -24 5 -54 6 -68 2
-13 -3 -61 -41 -106 -84 -45 -42 -104 -94 -132 -115 -80 -60 -201 -181 -215
-216 -22 -53 7 -90 95 -121 l29 -10 -44 -25 c-25 -14 -57 -39 -72 -55 l-27
-29 -143 0 c-79 0 -154 -1 -168 -2 -41 -5 -63 49 -56 138 6 82 18 119 50 154
25 28 50 83 66 146 5 22 19 49 30 59 11 10 20 30 21 44 0 14 4 35 8 46 10 24
-4 55 -25 55 -9 0 -29 -11 -45 -24 -16 -14 -54 -30 -86 -36 -32 -7 -79 -25
-104 -41 -48 -30 -150 -68 -184 -69 -23 0 -49 16 -132 81 -33 25 -80 54 -106
64 -26 10 -57 31 -70 49 -32 42 -71 130 -87 194 -12 51 -81 172 -98 172 -17 0
-102 82 -118 112 -26 51 -104 249 -104 265 0 53 74 104 179 123 53 10 81 24
183 93 27 18 68 44 93 59 l45 27 1 83 c2 126 5 132 68 136 42 2 64 -2 103 -23
50 -26 51 -27 89 -9 35 15 39 21 45 66 4 27 10 51 15 54 13 8 49 -15 49 -31 0
-12 47 -45 65 -45 8 0 137 133 220 228 43 49 83 85 103 92 18 6 42 24 53 39
19 26 22 27 68 17 43 -8 52 -7 76 12 15 12 35 22 44 22 9 0 40 16 70 36 53 36
55 36 105 25 41 -9 60 -8 100 4 27 8 72 15 100 15 27 0 104 7 171 15 66 8 211
19 321 23 163 7 207 11 228 25 38 26 70 21 121 -19 26 -19 57 -39 71 -44 13
-5 93 -14 178 -21 178 -13 241 -4 316 42 34 21 60 29 94 29 26 0 63 8 84 18
57 29 151 45 243 41 69 -3 94 -9 139 -33 169 -89 186 -96 231 -96 54 0 63 8
79 70 6 25 13 53 16 63 5 15 20 17 129 17 107 0 129 -3 157 -20 18 -11 40 -20
48 -20 26 0 146 -97 159 -128 7 -16 25 -41 39 -55 36 -34 184 -93 268 -108 76
-13 75 -12 301 -251 39 -42 85 -84 102 -94 16 -9 35 -28 42 -41 16 -30 22 -29
53 8 25 29 26 36 26 154 0 140 9 170 55 189 l32 14 -8 63 c-8 70 -22 113 -38
124 -6 3 -11 19 -11 35 0 29 0 29 51 23 62 -7 65 -4 74 96 8 99 -9 242 -35
297 -12 24 -24 69 -27 101 -7 77 -39 187 -68 232 -31 48 -43 90 -54 186 -10
90 -26 134 -72 187 -26 30 -35 55 -54 150 -17 83 -39 149 -83 248 -33 74 -69
165 -82 202 -12 37 -26 70 -30 73 -5 3 -23 49 -41 103 -31 96 -31 98 -25 252
6 168 -10 283 -52 380 -11 25 -24 72 -28 105 -9 81 -35 136 -88 193 l-44 47
14 55 c18 69 18 131 -1 200 -8 30 -15 78 -15 107 0 28 -4 63 -10 77 -15 41
-50 258 -50 314 0 58 -24 125 -71 201 -28 47 -32 61 -36 155 -5 92 -8 106 -32
133 -21 25 -36 32 -77 36 -51 6 -53 5 -110 -46 -89 -79 -139 -110 -164 -102
-12 4 -39 24 -61 46 -21 21 -56 47 -77 58 -37 19 -41 19 -55 3 -20 -23 -93
-164 -108 -210 -14 -42 -49 -102 -70 -118 -21 -17 -61 -24 -189 -33 -184 -14
-264 9 -308 88 -29 51 -85 96 -148 117 -27 9 -59 24 -71 34 -13 10 -38 21 -56
24 -18 3 -47 20 -63 37 -38 40 -68 55 -130 63 -42 5 -58 2 -100 -19 -67 -34
-131 -34 -191 2 -41 24 -48 25 -79 14 -19 -7 -60 -15 -92 -17 -31 -3 -89 -12
-127 -21 -85 -19 -153 -12 -192 21 -53 44 -179 115 -223 125 -52 12 -158 12
-215 0z m2392 -4045 c9 -23 -11 -38 -26 -20 -13 16 -7 36 10 36 5 0 12 -7 16
-16z m1193 0 c0 -8 -5 -12 -10 -9 -6 4 -8 11 -5 16 9 14 15 11 15 -7z m-3
-291 c-3 -10 -5 -2 -5 17 0 19 2 27 5 18 2 -10 2 -26 0 -35z m-9497 -2703 c0
-5 -4 -10 -10 -10 -5 0 -10 5 -10 10 0 6 5 10 10 10 6 0 10 -4 10 -10z m-3700
-1106 c0 -9 -5 -14 -12 -12 -18 6 -21 28 -4 28 9 0 16 -7 16 -16z m13404 -89
c9 -58 -4 -297 -15 -268 -4 11 -11 68 -15 126 -10 156 12 263 30 142z m-13310
-1993 c3 -5 3 -25 -1 -46 -5 -29 -8 -34 -19 -25 -8 6 -14 18 -14 26 0 7 -7 16
-15 19 -20 8 -19 21 3 27 29 8 41 7 46 -1z m4537 -230 c-15 -156 -1 -229 65
-342 42 -73 76 -106 126 -122 34 -12 45 -23 65 -63 14 -28 29 -57 34 -65 43
-72 50 -94 45 -139 -6 -45 -5 -47 52 -107 48 -50 68 -64 114 -78 84 -24 146
-21 191 9 20 14 37 30 37 36 0 5 8 28 19 49 l19 39 -37 26 c-46 31 -78 73 -97
127 -17 49 -67 109 -105 125 -30 13 -42 30 -57 86 l-11 37 177 88 177 87 130
-3 c201 -4 285 -16 312 -47 18 -21 37 -27 95 -35 84 -11 189 -13 212 -4 9 3
16 12 16 20 0 25 -47 44 -136 55 -106 13 -129 26 -138 73 -5 24 -15 40 -33 49
-36 19 -17 28 75 34 68 5 88 2 167 -26 75 -25 97 -38 131 -75 43 -47 45 -48
165 -70 121 -23 154 -34 180 -62 13 -14 50 -39 82 -55 31 -16 57 -34 57 -39 0
-5 26 -17 58 -27 74 -23 363 -22 429 1 l42 15 30 -49 c44 -72 48 -73 219 -60
133 11 149 14 172 36 24 22 136 74 161 74 7 0 48 17 93 39 44 21 111 48 147
59 36 11 83 32 104 46 39 27 121 54 230 76 33 6 77 15 98 20 40 8 151 -1 164
-13 3 -4 -1 -23 -10 -42 -24 -51 -21 -75 12 -104 50 -44 50 -66 -3 -115 -49
-45 -54 -62 -35 -129 8 -30 15 -38 27 -33 100 32 186 66 201 80 10 9 28 50 40
90 12 40 28 82 36 92 13 18 14 17 25 -11 12 -30 9 -163 -5 -197 -4 -10 -22
-27 -41 -39 -25 -15 -37 -33 -48 -67 -8 -26 -32 -82 -55 -125 -23 -42 -41 -83
-41 -91 0 -7 -13 -32 -30 -54 -16 -23 -30 -45 -30 -49 -1 -5 -20 -33 -43 -63
-37 -48 -54 -60 -129 -92 -166 -71 -352 -88 -480 -43 -105 37 -114 45 -138
124 -14 49 -34 86 -68 127 -72 89 -78 93 -150 94 -60 0 -69 -3 -175 -66 -62
-36 -126 -79 -142 -95 -65 -61 -191 -82 -334 -54 -136 26 -170 18 -242 -58
l-58 -62 -88 1 c-118 1 -292 38 -363 77 -30 16 -97 61 -148 99 -108 82 -169
108 -251 108 -50 0 -65 -4 -91 -26 -51 -43 -60 -72 -60 -187 l0 -104 -44 -24
-44 -23 -107 36 c-100 34 -110 35 -145 23 -62 -22 -267 -48 -318 -40 -95 14
-392 195 -392 239 0 8 -15 32 -32 54 -110 134 -151 274 -152 517 -1 195 13
432 26 468 l11 28 21 -21 c17 -17 20 -29 17 -68z m-4116 -726 c15 -51 15 -57
-1 -80 -9 -15 -24 -26 -33 -26 -27 0 -61 29 -61 52 0 29 48 108 65 108 9 0 21
-21 30 -54z m5718 -2306 c49 -37 83 -50 136 -50 16 0 31 -8 39 -21 22 -34 89
-57 195 -64 111 -8 121 -16 88 -68 -27 -44 -26 -59 5 -97 72 -85 170 -79 184
13 5 29 9 33 50 39 25 3 59 4 77 1 30 -5 31 -6 21 -35 -7 -20 -22 -35 -45 -45
-29 -12 -34 -18 -28 -36 3 -12 12 -58 19 -102 13 -81 18 -81 31 2 4 24 15 53
24 65 16 19 27 21 91 20 87 -3 110 11 110 67 0 20 7 49 15 64 8 15 17 43 21
63 3 19 10 37 16 40 5 3 48 2 95 -1 82 -7 85 -8 55 -21 -24 -10 -62 -57 -62
-77 0 -2 34 -26 75 -53 41 -27 75 -52 75 -56 0 -4 -8 -9 -17 -13 -10 -3 -38
-23 -62 -44 -49 -42 -50 -58 -6 -87 23 -15 61 -17 363 -15 185 0 352 4 370 7
23 5 46 22 78 60 25 29 68 67 94 83 48 29 48 29 100 14 29 -8 74 -29 99 -45
25 -16 68 -35 95 -43 28 -9 62 -28 81 -48 17 -18 63 -46 101 -62 83 -35 152
-82 219 -151 49 -49 55 -52 157 -76 121 -29 144 -44 214 -139 25 -33 51 -62
59 -65 48 -19 77 -164 42 -217 l-16 -24 -63 31 c-60 30 -67 31 -178 29 -74 -1
-157 -10 -235 -26 -117 -23 -122 -23 -180 -7 -33 10 -76 27 -95 39 -30 18 -50
21 -141 21 l-107 0 -48 40 c-57 47 -110 64 -177 57 -65 -8 -68 -11 -51 -60 16
-45 12 -90 -11 -121 -14 -18 -15 -18 -43 10 -15 16 -58 53 -96 82 -75 58 -100
63 -209 41 -51 -11 -62 -9 -108 10 l-51 21 -110 -20 c-61 -11 -127 -17 -147
-14 -22 4 -66 -2 -116 -16 -50 -13 -119 -23 -185 -25 -58 -2 -136 -10 -173
-19 -76 -18 -159 -20 -227 -6 -29 6 -65 5 -103 -2 -55 -10 -60 -9 -130 23 -88
41 -212 53 -265 25 -44 -23 -63 -20 -112 15 -61 44 -130 63 -188 50 -32 -7
-97 -7 -205 1 -191 12 -206 8 -243 -65 -32 -63 -95 -147 -109 -147 -21 0 -66
58 -79 101 -14 46 -41 69 -84 69 -32 0 -140 -56 -184 -96 -20 -18 -55 -43 -78
-54 -22 -11 -49 -29 -59 -39 -24 -24 -105 -35 -151 -21 -19 5 -86 10 -148 10
-78 0 -124 5 -145 14 -18 8 -84 29 -147 46 -63 17 -159 49 -215 71 -84 34
-110 39 -162 37 -64 -3 -103 16 -103 49 0 20 140 171 201 217 55 43 302 170
427 221 46 19 107 49 135 68 29 19 68 42 87 52 19 10 49 30 67 46 20 17 53 32
88 39 35 7 72 24 100 46 34 25 61 36 112 44 72 12 106 28 126 61 13 23 116 79
144 79 10 0 54 10 98 21 44 11 121 27 170 35 117 19 154 31 186 61 18 16 62
33 140 54 63 16 129 37 147 47 53 27 115 17 175 -28z m1496 -29 l23 -18 -30
-21 c-26 -19 -34 -20 -63 -11 -52 18 -54 26 -13 48 48 25 53 25 83 2z m-2598
-1589 c26 -23 31 -34 25 -55 -12 -50 -51 -74 -129 -81 -40 -3 -89 -9 -111 -12
-34 -6 -38 -5 -34 12 2 13 13 20 33 22 39 5 55 19 55 49 0 37 18 63 53 78 48
21 73 18 108 -13z m395 -104 c17 -18 41 -49 52 -69 24 -40 74 -84 158 -140 29
-20 63 -48 75 -63 30 -38 71 -56 128 -56 l50 0 24 -52 c21 -47 23 -56 11 -80
-8 -15 -18 -29 -23 -32 -4 -3 -39 1 -77 9 -38 8 -88 15 -112 15 -50 0 -88 17
-119 54 -12 14 -55 42 -95 62 -42 21 -98 61 -134 95 -74 71 -136 95 -226 85
-56 -5 -58 -5 -64 20 -5 19 -1 31 16 46 12 11 30 40 40 64 21 47 26 50 130 63
121 16 133 14 166 -21z m-873 -102 c33 -8 70 -24 85 -38 15 -14 57 -41 94 -61
56 -31 76 -37 127 -37 34 0 78 7 99 15 78 33 115 -13 111 -139 -3 -84 10 -116
49 -117 15 0 34 -2 42 -3 8 -2 39 -6 69 -10 29 -4 65 -16 80 -27 16 -12 76
-29 156 -45 83 -16 137 -32 150 -43 43 -40 63 -43 236 -42 173 1 192 4 221 29
14 12 23 12 45 3 47 -19 165 -41 224 -41 31 0 73 -7 92 -15 60 -25 146 -20
208 13 49 26 58 27 99 18 25 -6 71 -24 102 -40 58 -28 58 -28 153 -17 85 10
99 9 144 -8 l50 -19 48 31 c64 41 127 47 192 18 32 -13 72 -21 113 -22 35 0
86 -4 113 -7 28 -4 75 -4 105 0 288 35 368 54 403 94 30 35 77 32 114 -6 70
-71 92 -173 58 -265 -21 -58 -44 -86 -103 -127 -39 -27 -52 -30 -170 -38 -70
-5 -141 -13 -159 -19 -76 -23 -167 -134 -163 -199 4 -50 0 -62 -23 -77 -21
-13 -29 -13 -74 0 -50 15 -52 17 -64 66 -11 42 -21 57 -51 77 l-38 25 -45 -24
c-26 -14 -49 -34 -54 -49 -11 -32 -79 -100 -99 -100 -4 0 -28 20 -52 45 -24
25 -47 45 -51 45 -17 0 -31 -73 -24 -122 8 -59 23 -88 44 -88 30 0 80 -24 84
-41 7 -25 -38 -29 -322 -35 -134 -2 -247 -7 -252 -9 -16 -10 -230 -6 -330 6
-84 10 -106 17 -135 40 -40 32 -42 32 -224 59 -143 20 -223 47 -407 136 -50
24 -95 44 -98 44 -4 0 -46 19 -93 43 -117 58 -161 73 -270 97 -137 29 -214 35
-266 20 l-45 -12 5 -42 c6 -51 -3 -65 -47 -72 -28 -4 -40 0 -68 25 -19 16 -37
29 -40 28 -3 0 -23 2 -43 6 -53 11 -58 38 -17 82 32 33 37 35 101 35 74 0 84
9 49 46 -10 11 -21 36 -25 55 -3 20 -20 53 -36 75 -16 21 -30 44 -30 51 0 12
-8 21 -59 66 -17 15 -31 31 -31 36 0 5 20 15 45 22 27 8 52 24 65 42 l21 28
-20 43 c-12 23 -21 47 -21 52 0 6 -13 23 -30 39 -20 19 -39 57 -60 120 -31 92
-81 185 -99 185 -14 0 -71 62 -71 77 0 12 27 32 45 33 6 0 36 -6 68 -14z
m4147 -26 c0 -5 -4 -10 -10 -10 -5 0 -10 5 -10 10 0 6 5 10 10 10 6 0 10 -4
10 -10z m-102 -197 c2 -9 -8 -13 -32 -13 -40 0 -57 16 -24 23 34 7 51 3 56
-10z m-3391 -1098 c1 -5 -1 -16 -6 -24 -8 -12 -14 -12 -41 -1 -31 13 -31 14
-14 27 21 15 56 14 61 -2z"/>
<path d="M8495 6573 c-52 -7 -63 -15 -30 -23 44 -11 133 -11 139 -1 6 9 -48
32 -68 30 -6 -1 -24 -4 -41 -6z"/>
<path d="M8736 6462 c-9 -14 8 -28 48 -37 33 -8 41 -15 48 -42 9 -36 19 -45
36 -34 21 13 -7 101 -36 112 -29 11 -89 12 -96 1z"/>
<path d="M7635 6081 c-8 -27 11 -54 21 -28 3 9 1 24 -4 33 -9 16 -10 15 -17
-5z"/>
<path d="M8131 3741 c-16 -29 -13 -97 4 -111 19 -15 32 -6 53 38 9 19 30 43
46 51 45 25 36 36 -31 39 -53 3 -63 0 -72 -17z"/>
<path d="M9133 3297 c-12 -44 -5 -64 21 -54 11 5 13 15 9 44 -8 55 -17 59 -30
10z"/>
<path d="M10642 17280 c-6 -15 -6 -29 -1 -34 15 -16 27 6 19 34 l-7 25 -11
-25z"/>
<path d="M2451 13954 c0 -11 3 -14 6 -6 3 7 2 16 -1 19 -3 4 -6 -2 -5 -13z"/>
<path d="M2344 13723 c-3 -16 -10 -41 -15 -57 -13 -43 -10 -118 6 -139 27 -37
75 1 90 71 10 48 -2 98 -31 127 -32 32 -42 32 -50 -2z"/>
<path d="M2524 13385 c-18 -34 -18 -35 1 -49 27 -20 49 -20 68 2 15 16 14 20
-5 50 -26 41 -40 40 -64 -3z"/>
<path d="M2627 12464 c-14 -14 -7 -25 13 -22 12 2 21 8 21 13 0 12 -24 18 -34
9z"/>
<path d="M13595 12363 c-27 -3 -51 -15 -76 -38 -32 -29 -46 -34 -106 -39 -73
-7 -245 -43 -278 -59 -28 -13 -75 -58 -75 -71 0 -6 26 -32 59 -58 67 -53 176
-92 256 -90 86 2 217 -18 280 -43 78 -31 131 -41 296 -55 91 -8 147 -18 174
-31 23 -10 65 -23 95 -29 30 -6 75 -17 100 -25 93 -30 216 -58 254 -56 85 4
160 58 169 122 5 35 15 51 62 95 32 29 54 57 50 63 -22 37 -176 77 -226 59
-54 -20 -99 -61 -109 -99 -24 -86 -66 -91 -134 -13 -47 54 -48 56 -41 102 6
40 15 54 58 93 60 54 59 71 -7 88 -39 10 -53 8 -97 -9 -50 -18 -56 -19 -120
-4 -67 15 -83 26 -104 68 -18 35 -68 33 -146 -8 -93 -49 -161 -50 -210 -5 -35
32 -63 50 -76 47 -4 -1 -26 -3 -48 -5z m685 -214 c0 -12 -27 -11 -35 1 -11 17
5 32 21 19 8 -6 14 -15 14 -20z"/>
<path d="M4422 12100 c-12 -5 -76 -20 -141 -34 -79 -16 -137 -35 -172 -55 -32
-18 -81 -34 -121 -41 -37 -5 -74 -13 -82 -16 -27 -10 -20 -87 13 -153 35 -69
40 -71 205 -72 61 0 163 -4 226 -9 125 -9 388 1 640 25 85 8 180 16 210 18 30
2 127 18 215 36 274 55 248 45 268 100 9 27 17 51 17 54 0 13 -92 36 -165 42
-87 7 -199 38 -229 64 -24 22 -203 27 -351 11 -101 -11 -118 -10 -210 10 -113
24 -289 35 -323 20z"/>
<path d="M13597 11770 c-57 -6 -64 -19 -20 -34 18 -6 41 -19 52 -28 11 -9 36
-20 56 -24 19 -3 39 -13 43 -21 10 -18 152 -32 152 -15 0 7 -12 14 -27 17 -87
18 -89 20 -120 83 -5 12 -96 27 -136 22z"/>
<path d="M0 10360 l0 -400 29 0 c17 0 33 -5 36 -10 4 -6 32 -29 63 -52 31 -23
60 -47 65 -54 15 -26 234 -206 313 -259 62 -40 108 -54 194 -56 49 -1 76 3
107 19 50 26 56 45 56 197 1 98 -2 118 -28 180 -15 39 -40 132 -56 208 -18 91
-34 146 -46 160 -11 12 -32 42 -48 67 -16 25 -60 80 -99 123 -62 68 -83 83
-172 126 -55 27 -134 59 -175 71 -41 13 -100 35 -132 51 -32 16 -69 29 -82 29
l-25 0 0 -400z"/>
<path d="M16410 10046 c0 -2 9 -6 20 -9 11 -3 20 -1 20 4 0 5 -9 9 -20 9 -11
0 -20 -2 -20 -4z"/>
<path d="M0 8465 l0 -1095 21 0 c11 0 40 -12 65 -26 58 -34 158 -64 214 -64
44 0 50 -4 147 -94 80 -74 111 -97 154 -111 30 -10 101 -36 159 -60 58 -23
122 -48 142 -54 45 -15 88 -63 88 -98 0 -29 -33 -88 -55 -97 -17 -6 -58 -69
-73 -114 -6 -19 -23 -43 -37 -54 -57 -44 -69 -117 -37 -208 107 -295 180 -405
314 -467 51 -23 154 -31 226 -17 43 9 59 49 72 189 11 121 1 395 -19 525 -13
82 -87 342 -109 386 -16 32 -19 53 -15 116 4 59 1 92 -15 145 -11 37 -26 95
-32 128 -7 33 -21 83 -31 111 -15 40 -17 58 -9 78 26 68 10 169 -62 396 -22
70 -23 80 -12 145 7 39 13 98 13 132 1 53 -34 466 -54 639 l-6 51 -34 -34
c-18 -18 -39 -33 -47 -33 -15 0 -62 -70 -154 -226 -71 -122 -70 -120 -86 -107
-7 6 -28 15 -46 21 -30 10 -36 9 -55 -12 -34 -36 -55 -43 -152 -50 -114 -9
-157 -20 -193 -51 -25 -21 -36 -24 -80 -18 -45 5 -54 10 -78 45 -15 22 -37 46
-48 54 -20 14 -20 14 3 68 12 30 27 96 34 148 16 125 30 143 241 322 76 65 91
83 107 128 l19 53 -30 25 c-16 14 -48 32 -71 41 -34 12 -48 25 -66 60 -26 49
-61 89 -77 89 -6 0 -27 10 -46 22 -49 31 -141 68 -167 68 l-23 0 0 -1095z
m1013 -901 c20 -4 37 -9 37 -13 0 -3 -23 -12 -51 -18 -53 -13 -160 0 -142 17
17 17 96 23 156 14z"/>
<path d="M2344 2362 c-6 -4 -14 -17 -18 -29 -5 -15 -18 -24 -40 -28 l-33 -7
-9 -106 c-5 -59 -8 -179 -6 -266 l2 -160 -45 -111 c-30 -75 -45 -127 -45 -157
0 -59 -20 -123 -54 -173 -24 -34 -27 -46 -22 -85 17 -117 18 -143 7 -186 -7
-25 -21 -58 -32 -73 -32 -43 -38 -90 -44 -321 -3 -118 -10 -237 -15 -265 -5
-27 -12 -75 -15 -105 -7 -67 -20 -93 -35 -70 -5 8 -10 31 -11 50 -7 123 -10
252 -8 363 0 71 -5 165 -11 211 -15 96 -8 144 24 183 17 22 22 39 20 78 -1 28
-3 52 -3 54 -1 2 -10 -4 -22 -15 -12 -10 -23 -18 -25 -16 -2 1 -14 2 -27 2
-19 0 -26 -10 -42 -62 -16 -50 -27 -68 -55 -86 -43 -28 -46 -37 -59 -150 -10
-93 -39 -167 -86 -224 -13 -15 -26 -42 -30 -60 -4 -18 -15 -62 -26 -97 -10
-35 -19 -77 -19 -95 -1 -28 -2 -29 -12 -11 -9 14 -12 93 -10 265 l1 245 30 84
c17 46 42 138 56 205 14 66 36 164 50 216 13 52 26 119 29 148 4 44 12 61 46
99 22 25 40 54 40 63 0 19 18 37 54 55 12 6 22 22 24 39 5 42 -11 53 -44 27
-15 -11 -35 -21 -44 -21 -10 0 -36 -15 -57 -32 -63 -53 -207 -115 -313 -137
-52 -10 -111 -25 -130 -33 -30 -12 -41 -13 -80 -1 -30 9 -83 13 -155 11 -78
-1 -134 3 -193 16 -74 16 -95 17 -185 6 -90 -11 -108 -16 -155 -48 -73 -49
-82 -42 -107 87 -26 131 -31 136 -140 125 -44 -4 -122 -7 -173 -6 l-92 2 0
-880 0 -880 2190 0 2190 0 0 21 c0 11 -25 45 -57 78 -32 32 -82 84 -111 115
-29 31 -78 73 -110 94 -69 44 -69 45 -76 97 -5 32 -17 52 -52 86 -25 24 -65
73 -88 109 -44 67 -119 142 -194 195 -26 19 -73 75 -123 148 -74 109 -141 187
-160 187 -13 0 -101 124 -124 175 -13 28 -54 87 -93 132 -38 44 -87 109 -107
144 -53 90 -105 149 -181 205 -58 43 -71 59 -110 135 -42 85 -45 88 -111 123
-36 20 -91 43 -120 51 -32 9 -59 24 -67 38 -8 12 -20 60 -26 107 -16 122 -21
130 -72 130 -24 0 -48 -4 -54 -8z"/>
<path d="M12917 780 c-14 -16 -28 -43 -32 -60 -8 -35 -43 -66 -94 -81 -32 -9
-45 -8 -96 14 -33 13 -87 28 -120 32 -33 4 -76 15 -96 25 -50 26 -131 36 -169
20 -24 -10 -39 -31 -72 -99 -40 -83 -72 -133 -111 -176 -35 -38 -55 -91 -62
-166 -4 -40 -9 -77 -12 -81 -2 -5 -22 1 -43 12 -66 34 -88 25 -125 -50 -9 -19
-28 -47 -42 -61 -14 -16 -27 -44 -30 -68 l-6 -41 145 0 145 0 6 57 c3 32 13
63 22 72 15 15 18 14 32 -4 21 -28 43 -80 43 -105 0 -20 0 -20 1226 -20 l1225
0 -3 27 c-3 25 -10 28 -121 59 -65 18 -130 40 -144 49 -14 10 -76 30 -137 46
-61 16 -128 41 -148 54 -28 19 -78 32 -195 54 -138 25 -168 34 -236 71 -43 23
-86 54 -95 69 -9 14 -27 37 -39 50 -13 13 -23 29 -23 35 0 33 -73 156 -116
197 l-49 47 -151 26 c-83 14 -174 26 -202 26 -43 0 -54 -4 -75 -30z"/>
<path d="M6144 645 c-9 -22 1 -29 15 -11 8 10 9 16 1 21 -5 3 -13 -1 -16 -10z"/>
</g>
</svg>
